<svg width="20.000000" height="18.000000" viewBox="0 0 20 18" fill="none" xmlns="http://www.w3.org/2000/svg" xmlns:xlink="http://www.w3.org/1999/xlink">
	<desc>
			Created with Pixso.
	</desc>
	<defs/>
	<path id="Vector" d="M15 0C12.9169 0 11.3406 1.16931 10 2.39124C8.72253 1.0946 7.08313 0 5 0C2.06622 0 0 2.41272 0 5.0437C0 6.4552 0.60437 7.47205 1.26624 8.42676L9.03687 17.3378C9.90936 18.2207 10.0737 18.2207 10.9462 17.3378L18.7344 8.42676C19.5125 7.47205 20 6.4552 20 5.0437C20 2.41284 17.9337 0 15 0ZM17.5 8.17932L10 16.7388L2.5 8.14404C1.60315 6.95142 1.25 6.14673 1.25 5.0437C1.25 2.98853 2.78436 1.13818 5 1.12085C6.82251 1.10657 8.88812 2.88684 10 4.22888C11.0825 2.93347 13.1775 1.12085 15 1.12085C17.1569 1.12085 18.75 2.98853 18.75 5.0437C18.75 6.14673 18.4706 7.01111 17.5 8.17932Z" fill="#323232" fill-opacity="1.000000" fill-rule="nonzero"/>
</svg>
