<svg width="20.000000" height="20.000000" viewBox="0 0 20 20" fill="none" xmlns="http://www.w3.org/2000/svg" xmlns:xlink="http://www.w3.org/1999/xlink">
	<desc>
			Created with Pixso.
	</desc>
	<defs/>
	<path id="Vector" d="M18.8248 10.7273L19.9938 4.29895C20.0038 4.24353 20.0016 4.18665 19.9873 4.1322C19.9729 4.07764 19.9467 4.0271 19.9106 3.98376C19.8745 3.94055 19.8294 3.90576 19.7784 3.88196C19.7273 3.85803 19.6717 3.8457 19.6154 3.8457L3.78247 3.8457L3.25555 0.947388C3.20734 0.681519 3.06726 0.440918 2.85974 0.267822C2.65222 0.0946045 2.39044 -0.00012207 2.12018 0L0.384644 0C0.282593 0 0.184753 0.0405273 0.112671 0.112671C0.0405273 0.184814 0 0.282593 0 0.384521C0 0.486572 0.0405273 0.584351 0.112671 0.656494C0.184753 0.728638 0.282593 0.769165 0.384644 0.769165L2.12018 0.769165C2.21027 0.769043 2.29749 0.800659 2.3667 0.858398C2.43585 0.916138 2.48254 0.996216 2.49866 1.08484L5.17938 15.8269C4.80237 16.1014 4.51733 16.4838 4.362 16.9236C4.2066 17.3633 4.18811 17.8398 4.30902 18.2903C4.42987 18.7407 4.68439 19.144 5.03906 19.4469C5.39374 19.7499 5.83185 19.9382 6.29572 19.9872C6.75958 20.0363 7.22742 19.9435 7.63757 19.7213C8.04767 19.4991 8.38086 19.158 8.59314 18.7427C8.80548 18.3274 8.88696 17.8575 8.8269 17.395C8.76678 16.9326 8.56799 16.4991 8.25659 16.1519L14.8203 16.1519C14.4683 16.5455 14.2621 17.0481 14.2361 17.5754C14.2101 18.1029 14.366 18.6233 14.6776 19.0497C14.9893 19.476 15.4377 19.7825 15.9482 19.9178C16.4587 20.0533 17.0002 20.0095 17.4822 19.7937C17.9642 19.5779 18.3576 19.2032 18.5966 18.7324C18.8355 18.2615 18.9056 17.7228 18.7952 17.2064C18.6847 16.6901 18.4003 16.2272 17.9896 15.8953C17.5788 15.5634 17.0665 15.3824 16.5385 15.3827L5.88037 15.3827L5.32092 12.3062L16.9329 12.3062C17.3832 12.3063 17.8194 12.1483 18.1652 11.8597C18.5109 11.5713 18.7444 11.1704 18.8248 10.7273ZM8.0769 17.6901C8.0769 17.9944 7.98669 18.2917 7.81763 18.5447C7.64856 18.7977 7.40833 18.9949 7.1272 19.1113C6.84607 19.2278 6.53674 19.2582 6.23828 19.1989C5.93988 19.1395 5.66577 18.9929 5.45062 18.7778C5.23541 18.5627 5.08893 18.2886 5.02954 17.9902C4.97021 17.6918 5.00067 17.3826 5.11713 17.1014C5.23352 16.8203 5.43073 16.5801 5.68372 16.4111C5.93671 16.2421 6.23419 16.1519 6.53845 16.1519C6.94635 16.1523 7.3374 16.3146 7.62579 16.6029C7.91418 16.8912 8.07648 17.2822 8.0769 17.6901ZM18.0769 17.6901C18.0769 17.9944 17.9866 18.2917 17.8176 18.5447C17.6486 18.7977 17.4083 18.9949 17.1272 19.1113C16.8461 19.2278 16.5367 19.2582 16.2383 19.1989C15.9399 19.1395 15.6657 18.9929 15.4506 18.7778C15.2354 18.5627 15.0889 18.2886 15.0295 17.9902C14.9702 17.6918 15.0006 17.3826 15.1171 17.1014C15.2335 16.8203 15.4307 16.5801 15.6837 16.4111C15.9367 16.2421 16.2341 16.1519 16.5385 16.1519C16.9463 16.1523 17.3373 16.3146 17.6258 16.6029C17.9142 16.8912 18.0764 17.2822 18.0769 17.6901ZM3.92242 4.61487L19.1545 4.61487L18.0679 10.5897C18.0197 10.8556 17.8796 11.0961 17.6722 11.2692C17.4647 11.4424 17.2031 11.5371 16.9329 11.537L5.18115 11.537L3.92242 4.61487Z" fill="#323232" fill-opacity="1.000000" fill-rule="nonzero"/>
</svg>
