<svg width="30.000000" height="34.800049" viewBox="0 0 30 34.8" fill="none" xmlns="http://www.w3.org/2000/svg" xmlns:xlink="http://www.w3.org/1999/xlink">
	<desc>
			Created with Pixso.
	</desc>
	<defs>
		<clipPath id="clip10_116">
			<rect id="fa-brands:facebook-square" width="30.000000" height="34.799999" fill="white" fill-opacity="0"/>
		</clipPath>
	</defs>
	<rect id="fa-brands:facebook-square" width="30.000000" height="34.799999" fill="#FFFFFF" fill-opacity="0"/>
	<g clip-path="url(#clip10_116)">
		<path id="Vector" d="M26.7857 2.1748L3.21429 2.1748C2.36182 2.1748 1.54425 2.51855 0.941467 3.13037C0.338623 3.74219 0 4.57202 0 5.43726L0 29.3623C0 30.2275 0.338623 31.0574 0.941467 31.6692C1.54425 32.2811 2.36182 32.6248 3.21429 32.6248L12.4052 32.6248L12.4052 22.2725L8.1864 22.2725L8.1864 17.3998L12.4052 17.3998L12.4052 13.686C12.4052 9.46179 14.8828 7.12842 18.6777 7.12842C20.4951 7.12842 22.3955 7.45728 22.3955 7.45728L22.3955 11.6034L20.3016 11.6034C18.2384 11.6034 17.5948 12.903 17.5948 14.2358L17.5948 17.3998L22.2007 17.3998L21.4641 22.2725L17.5948 22.2725L17.5948 32.6248L26.7857 32.6248C27.6382 32.6248 28.4557 32.2811 29.0585 31.6692C29.6614 31.0574 30 30.2275 30 29.3623L30 5.43726C30 4.57202 29.6614 3.74219 29.0585 3.13037C28.4557 2.51855 27.6382 2.1748 26.7857 2.1748Z" fill="#F1F1F1" fill-opacity="1.000000" fill-rule="nonzero"/>
	</g>
</svg>
