<svg width="168.064819" height="23.164062" viewBox="0 0 168.065 23.1641" fill="none" xmlns="http://www.w3.org/2000/svg" xmlns:xlink="http://www.w3.org/1999/xlink">
	<desc>
			Created with Pixso.
	</desc>
	<defs/>
	<path id="TOTEMBO" d="M7.17188 4.60156L0 4.60156L0 0.382812L19.5234 0.382812L19.5234 4.60156L12.3516 4.60156L12.3516 22.7812L7.17188 22.7812L7.17188 4.60156ZM32.8388 23.1641Q29.3466 23.1641 26.5419 21.6641Q23.7451 20.1562 22.1591 17.5156Q20.581 14.875 20.581 11.5781Q20.581 8.28906 22.1591 5.64844Q23.7451 3.00781 26.5419 1.50781Q29.3466 0 32.8388 0Q36.3232 0 39.1044 1.50781Q41.8935 3.00781 43.4873 5.64844Q45.0888 8.28906 45.0888 11.5781Q45.0888 14.875 43.4873 17.5156Q41.8935 20.1562 39.1044 21.6641Q36.3232 23.1641 32.8388 23.1641ZM32.8388 18.75Q34.8154 18.75 36.4169 17.8359Q38.0185 16.9219 38.9326 15.2969Q39.8466 13.6641 39.8466 11.5781Q39.8466 9.5 38.9326 7.86719Q38.0185 6.23438 36.4169 5.32812Q34.8154 4.41406 32.8388 4.41406Q30.8544 4.41406 29.2529 5.32812Q27.6513 6.23438 26.7373 7.86719Q25.8232 9.5 25.8232 11.5781Q25.8232 13.6641 26.7373 15.2969Q27.6513 16.9219 29.2529 17.8359Q30.8544 18.75 32.8388 18.75ZM53.3159 4.60156L46.144 4.60156L46.144 0.382812L65.6674 0.382812L65.6674 4.60156L58.4956 4.60156L58.4956 22.7812L53.3159 22.7812L53.3159 4.60156ZM85.795 18.625L85.795 22.7812L68.4513 22.7812L68.4513 0.382812L85.3809 0.382812L85.3809 4.53906L73.5997 4.53906L73.5997 9.40625L84.0059 9.40625L84.0059 13.4375L73.5997 13.4375L73.5997 18.625L85.795 18.625ZM110.306 22.7812L110.275 9.34375L103.681 20.4141L101.345 20.4141L94.7904 9.63281L94.7904 22.7812L89.9233 22.7812L89.9233 0.382812L94.2123 0.382812L102.595 14.3047L110.853 0.382812L115.111 0.382812L115.173 22.7812L110.306 22.7812ZM136.929 11.1328Q138.85 11.7422 139.936 13.1641Q141.03 14.5859 141.03 16.6719Q141.03 19.6094 138.741 21.1953Q136.452 22.7812 132.069 22.7812L120.483 22.7812L120.483 0.382812L131.429 0.382812Q135.522 0.382812 137.71 1.95312Q139.905 3.51562 139.905 6.20312Q139.905 7.83594 139.124 9.11719Q138.343 10.3984 136.929 11.1328ZM125.632 4.28906L125.632 9.5625L130.788 9.5625Q132.71 9.5625 133.702 8.89062Q134.694 8.21875 134.694 6.90625Q134.694 5.59375 133.702 4.94531Q132.71 4.28906 130.788 4.28906L125.632 4.28906ZM131.686 18.875Q133.733 18.875 134.772 18.2031Q135.811 17.5312 135.811 16.125Q135.811 13.3438 131.686 13.3438L125.632 13.3438L125.632 18.875L131.686 18.875ZM155.815 23.1641Q152.323 23.1641 149.518 21.6641Q146.721 20.1562 145.135 17.5156Q143.557 14.875 143.557 11.5781Q143.557 8.28906 145.135 5.64844Q146.721 3.00781 149.518 1.50781Q152.323 0 155.815 0Q159.299 0 162.08 1.50781Q164.87 3.00781 166.463 5.64844Q168.065 8.28906 168.065 11.5781Q168.065 14.875 166.463 17.5156Q164.87 20.1562 162.08 21.6641Q159.299 23.1641 155.815 23.1641ZM155.815 18.75Q157.791 18.75 159.393 17.8359Q160.995 16.9219 161.909 15.2969Q162.823 13.6641 162.823 11.5781Q162.823 9.5 161.909 7.86719Q160.995 6.23438 159.393 5.32812Q157.791 4.41406 155.815 4.41406Q153.83 4.41406 152.229 5.32812Q150.627 6.23438 149.713 7.86719Q148.799 9.5 148.799 11.5781Q148.799 13.6641 149.713 15.2969Q150.627 16.9219 152.229 17.8359Q153.83 18.75 155.815 18.75Z" fill="#323232" fill-opacity="1.000000" fill-rule="evenodd"/>
</svg>
