<svg width="30.000000" height="34.800049" viewBox="0 0 30 34.8" fill="none" xmlns="http://www.w3.org/2000/svg" xmlns:xlink="http://www.w3.org/1999/xlink">
	<desc>
			Created with Pixso.
	</desc>
	<defs>
		<clipPath id="clip10_110">
			<rect id="fa-brands:instagram-square" width="30.000000" height="34.799999" fill="white" fill-opacity="0"/>
		</clipPath>
	</defs>
	<rect id="fa-brands:instagram-square" width="30.000000" height="34.799999" fill="#FFFFFF" fill-opacity="0"/>
	<g clip-path="url(#clip10_110)">
		<path id="Vector" d="M15 13.7743C14.2936 13.7747 13.6031 13.9874 13.0159 14.386C12.4287 14.7845 11.9711 15.3508 11.701 16.0133C11.4308 16.6758 11.3603 17.4048 11.4982 18.1079C11.6362 18.8112 11.9765 19.457 12.4761 19.9639C12.9757 20.4707 13.6122 20.8159 14.305 20.9557C14.9978 21.0955 15.7159 21.0236 16.3685 20.7491C17.0211 20.4747 17.5789 20.01 17.9713 19.4138C18.3638 18.8176 18.5732 18.1168 18.5732 17.3998C18.5725 16.4382 18.1958 15.5164 17.5258 14.8365C16.8558 14.1567 15.9473 13.7747 15 13.7743ZM23.3511 10.9877C23.1693 10.5199 22.8947 10.0951 22.5444 9.7395C22.1941 9.38403 21.7756 9.10522 21.3148 8.92065C19.9085 8.3573 16.5602 8.48364 15 8.48364C13.4398 8.48364 10.0948 8.35254 8.68457 8.92065C8.22375 9.10522 7.80524 9.38403 7.45496 9.7395C7.10461 10.0951 6.83008 10.5199 6.64819 10.9877C6.09375 12.4149 6.21765 15.8168 6.21765 17.3992C6.21765 18.9814 6.09375 22.3792 6.65088 23.8113C6.8327 24.2791 7.1073 24.7039 7.45764 25.0594C7.80792 25.4149 8.22644 25.6936 8.68726 25.8782C10.0935 26.4417 13.4417 26.3153 15.0027 26.3153C16.5636 26.3153 19.9072 26.4464 21.3174 25.8782C21.7783 25.6936 22.1968 25.4149 22.5471 25.0594C22.8974 24.7039 23.1719 24.2791 23.3538 23.8113C23.913 22.3839 23.7844 18.9822 23.7844 17.3998C23.7844 15.8175 23.913 12.4204 23.3538 10.9883L23.3511 10.9877ZM15 22.9733C13.9139 22.9733 12.8523 22.6464 11.9493 22.0339C11.0463 21.4215 10.3425 20.551 9.92694 19.5327C9.51129 18.5143 9.40259 17.3937 9.61444 16.3125C9.82629 15.2313 10.3493 14.2383 11.1172 13.4587C11.8852 12.6793 12.8636 12.1486 13.9288 11.9335C14.9939 11.7184 16.098 11.8287 17.1013 12.2506C18.1047 12.6725 18.9623 13.3868 19.5657 14.3033C20.169 15.22 20.4911 16.2975 20.4911 17.3998C20.4919 18.132 20.3505 18.8572 20.0749 19.5337C19.7993 20.2103 19.3948 20.8251 18.8848 21.3428C18.3747 21.8606 17.769 22.271 17.1024 22.5508C16.4358 22.8306 15.7214 22.9741 15 22.9733ZM20.7174 12.8934C20.4639 12.8936 20.216 12.8174 20.0051 12.6746C19.7943 12.5317 19.6299 12.3286 19.5328 12.0908C19.4357 11.8531 19.4102 11.5916 19.4596 11.3392C19.509 11.0868 19.631 10.8549 19.8102 10.6729C19.9894 10.4908 20.2178 10.3669 20.4664 10.3167C20.7151 10.2665 20.9728 10.2921 21.2071 10.3906C21.4413 10.489 21.6415 10.6558 21.7824 10.8698C21.9233 11.0837 21.9984 11.3352 21.9984 11.5925C21.9991 11.7634 21.9666 11.9327 21.9027 12.0908C21.8387 12.2489 21.7448 12.3927 21.626 12.5138C21.5072 12.6349 21.366 12.7311 21.2106 12.7966C21.0551 12.8623 20.8884 12.8961 20.7201 12.8962L20.7174 12.8934ZM26.7858 2.1748L3.21429 2.1748C2.36182 2.1748 1.54425 2.51855 0.941467 3.13037C0.338623 3.74219 0 4.57202 0 5.43726L0 29.3623C0 30.2275 0.338623 31.0574 0.941467 31.6692C1.54425 32.2811 2.36182 32.6248 3.21429 32.6248L26.7858 32.6248C27.6382 32.6248 28.4558 32.2811 29.0586 31.6692C29.6614 31.0574 30 30.2275 30 29.3623L30 5.43726C30 4.57202 29.6614 3.74219 29.0586 3.13037C28.4558 2.51855 27.6382 2.1748 26.7858 2.1748ZM25.6393 21.8857C25.5529 23.6278 25.1611 25.1714 23.9083 26.4397C22.6553 27.708 21.1359 28.1138 19.4216 28.1967C17.6531 28.298 12.3509 28.298 10.5823 28.1967C8.86609 28.109 7.35065 27.7107 6.09576 26.4397C4.84082 25.1686 4.44641 23.6244 4.36475 21.8857C4.26495 20.09 4.26495 14.7075 4.36475 12.9138C4.45111 11.1719 4.8382 9.6283 6.09576 8.35999C7.35333 7.09167 8.87274 6.69067 10.5823 6.60767C12.3509 6.50647 17.6531 6.50647 19.4216 6.60767C21.1379 6.69543 22.658 7.09375 23.9083 8.36475C25.1584 9.63574 25.5576 11.1799 25.6393 12.922C25.739 14.7109 25.739 20.0886 25.6393 21.8857Z" fill="#F1F1F1" fill-opacity="1.000000" fill-rule="nonzero"/>
	</g>
</svg>
