<svg width="20.000000" height="20.000000" viewBox="0 0 20 20" fill="none" xmlns="http://www.w3.org/2000/svg" xmlns:xlink="http://www.w3.org/1999/xlink">
	<desc>
			Created with Pixso.
	</desc>
	<defs/>
	<path id="Vector" d="M10 0C4.4758 0 0 4.47583 0 10C0 15.5242 4.4758 20 10 20C15.5242 20 20 15.5242 20 10C20 4.47583 15.5242 0 10 0ZM18.7097 10C18.7097 14.7863 14.8347 18.7097 10 18.7097C5.21371 18.7097 1.29031 14.8347 1.29031 10C1.29031 5.21375 5.16531 1.29028 10 1.29028C14.7863 1.29028 18.7097 5.16528 18.7097 10ZM12.7057 13.5604L9.43146 11.1814C9.30646 11.0887 9.23389 10.9436 9.23389 10.7903L9.23389 4.35486C9.23389 4.08875 9.4516 3.87097 9.71774 3.87097L10.2823 3.87097C10.5484 3.87097 10.7661 4.08875 10.7661 4.35486L10.7661 10.254L13.6089 12.3226C13.8266 12.4799 13.871 12.7822 13.7137 13L13.3831 13.4557C13.2258 13.6693 12.9234 13.7178 12.7057 13.5604Z" fill="#FFFFFF" fill-opacity="1.000000" fill-rule="nonzero"/>
</svg>
